<?xml version="1.0" encoding="UTF-8" standalone="no"?>
<svg width="14px" height="14px" viewBox="0 0 14 14" version="1.1" xmlns="http://www.w3.org/2000/svg" xmlns:xlink="http://www.w3.org/1999/xlink">
    <!-- Generator: sketchtool 41 (35326) - http://www.bohemiancoding.com/sketch -->
    <title>EF6F6B87-93C5-4FA4-BCC7-7C1316AA1792</title>
    <desc>Created with sketchtool.</desc>
    <defs></defs>
    <g id="Page-1" stroke="none" stroke-width="1" fill="none" fill-rule="evenodd">
        <g id="m-kind-email-capture-expanded@2x" transform="translate(-332.000000, -29.000000)">
            <g id="close-icon" transform="translate(327.000000, 24.000000)">
                <rect id="bounding-box" x="0" y="0" width="24" height="24"></rect>
                <path d="M18.4037037,16.9660377 C18.8703704,17.4415094 18.8703704,18.1811321 18.4037037,18.6566038 C18.1703704,18.8943396 17.8851852,19 17.5740741,19 C17.262963,19 16.9777778,18.8943396 16.7444444,18.6566038 L12,13.8226415 L7.25555556,18.6566038 C7.02222222,18.8943396 6.73703704,19 6.42592593,19 C6.11481481,19 5.82962963,18.8943396 5.5962963,18.6566038 C5.12962963,18.1811321 5.12962963,17.4415094 5.5962963,16.9660377 L10.3407407,12.1320755 L5.5962963,7.29811321 C5.12962963,6.82264151 5.12962963,6.08301887 5.5962963,5.60754717 C6.06296296,5.13207547 6.78888889,5.13207547 7.25555556,5.60754717 L12,10.4415094 L16.7444444,5.60754717 C17.2111111,5.13207547 17.937037,5.13207547 18.4037037,5.60754717 C18.8703704,6.08301887 18.8703704,6.82264151 18.4037037,7.29811321 L13.6592593,12.1320755 L18.4037037,16.9660377 L18.4037037,16.9660377 Z" fill="#000000"></path>
            </g>
        </g>
    </g>
</svg>